2.2Hz3min_grf.mot
version=1
nRows=22
nColumns 19
inDegrees=yes
endheader
time	1_ground_force_vx	1_ground_force_vy	1_ground_force_vz	1_ground_force_px	1_ground_force_py	1_ground_force_pz	1_ground_torque_x	1_ground_torque_y	1_ground_torque_z	2_ground_force_vx	2_ground_force_vy	2_ground_force_vz	2_ground_force_px	2_ground_force_py	2_ground_force_pz	2_ground_torque_x	2_ground_torque_y	2_ground_torque_z
            3.751500	            1.972259	          197.586707	           -2.688744	           -0.203146	            0.006412	           -0.448020	           -0.002815	           -0.282057	            0.003838	            6.470413	          416.854033	           25.746024	           -0.213888	            0.005791	           -0.719924	           -0.006849	           -0.441236	           -0.027252
            3.752000	            2.064360	          193.441204	           -2.844318	           -0.203156	            0.006411	           -0.447819	           -0.003067	           -0.287422	            0.004226	            6.814814	          412.252856	           25.354033	           -0.213868	            0.005791	           -0.719884	           -0.007085	           -0.428571	           -0.026358
            3.752500	            2.065393	          189.655035	           -2.722982	           -0.202942	            0.006409	           -0.447377	           -0.002801	           -0.257197	            0.003693	            7.111179	          408.018619	           25.291873	           -0.213669	            0.005792	           -0.720134	           -0.008416	           -0.482882	           -0.029932
            3.753000	            2.020013	          185.869840	           -2.830813	           -0.202536	            0.006411	           -0.447882	           -0.003027	           -0.278495	            0.004242	            6.851100	          402.126866	           24.707829	           -0.213547	            0.005791	           -0.719634	           -0.007079	           -0.415499	           -0.025529
            3.753500	            1.654221	          181.903531	           -2.755196	           -0.203297	            0.006409	           -0.447521	           -0.003215	           -0.353513	            0.005354	            7.336879	          397.340716	           24.690547	           -0.213548	            0.005792	           -0.719967	           -0.008954	           -0.484923	           -0.030133
            3.754000	            2.067140	          178.839488	           -2.861072	           -0.202881	            0.006408	           -0.447271	           -0.003010	           -0.260445	            0.004167	            7.542703	          392.186716	           24.249716	           -0.213301	            0.005791	           -0.719528	           -0.009492	           -0.493522	           -0.030516
            3.754500	            2.023129	          173.790467	           -2.515754	           -0.202227	            0.006416	           -0.448986	           -0.003633	           -0.312086	            0.004518	            7.650381	          388.319810	           24.282806	           -0.213401	            0.005791	           -0.719602	           -0.009948	           -0.504943	           -0.031576
            3.755000	            2.115422	          171.086303	           -2.481720	           -0.202591	            0.006409	           -0.447326	           -0.004680	           -0.378465	            0.005490	            7.577078	          382.612540	           23.793196	           -0.213230	            0.005790	           -0.719025	           -0.008492	           -0.428830	           -0.026667
            3.755500	            1.704422	          166.758471	           -2.178256	           -0.202686	            0.006412	           -0.448063	           -0.004278	           -0.418552	            0.005467	            7.684550	          378.747247	           23.357005	           -0.213244	            0.005791	           -0.719388	           -0.007487	           -0.369029	           -0.022758
            3.756000	            2.209188	          164.054583	           -2.191102	           -0.202611	            0.006409	           -0.447469	           -0.004720	           -0.350530	            0.004682	            7.748742	          373.959073	           23.480686	           -0.213202	            0.005791	           -0.719181	           -0.007526	           -0.363206	           -0.022806
            3.756500	            1.980062	          160.450209	           -2.435272	           -0.202809	            0.006409	           -0.447525	           -0.005062	           -0.410227	            0.006226	            7.858954	          369.356547	           23.229579	           -0.213112	            0.005790	           -0.719028	           -0.008442	           -0.396740	           -0.024952
            3.757000	            1.980885	          155.943567	           -2.454596	           -0.201684	            0.006413	           -0.448274	           -0.005236	           -0.412237	            0.006489	            8.157793	          364.387193	           22.742438	           -0.212841	            0.005791	           -0.718810	           -0.010355	           -0.462550	           -0.028869
            3.757500	            2.257233	          153.238258	           -2.145881	           -0.202377	            0.006410	           -0.447544	           -0.004590	           -0.311632	            0.004364	            8.406561	          360.337658	           22.493243	           -0.212986	            0.005791	           -0.718981	           -0.011118	           -0.476542	           -0.029747
            3.758000	            2.303115	          150.535069	           -2.341013	           -0.202307	            0.006405	           -0.446567	           -0.005041	           -0.329503	            0.005124	            8.372921	          356.655162	           22.292409	           -0.213054	            0.005790	           -0.718901	           -0.010754	           -0.458083	           -0.028632
            3.758500	            2.029563	          146.027194	           -2.084519	           -0.201951	            0.006415	           -0.448672	           -0.005659	           -0.407185	            0.005813	            8.107752	          352.234754	           22.229831	           -0.212834	            0.005790	           -0.718731	           -0.007577	           -0.329191	           -0.020776
            3.759000	            1.892446	          143.143113	           -2.142401	           -0.201889	            0.006415	           -0.448654	           -0.006001	           -0.453948	            0.006794	            8.128897	          346.343012	           21.927237	           -0.212610	            0.005790	           -0.718512	           -0.008016	           -0.341526	           -0.021622
            3.759500	            1.984560	          140.799677	           -2.152677	           -0.201603	            0.006407	           -0.446948	           -0.006859	           -0.486641	            0.007440	            8.519606	          341.925140	           21.817451	           -0.212959	            0.005788	           -0.718345	           -0.008909	           -0.357543	           -0.022814
            3.760000	            1.847462	          137.194730	           -2.259507	           -0.202177	            0.006411	           -0.447769	           -0.006034	           -0.448072	            0.007379	            8.676730	          337.322282	           21.707109	           -0.212809	            0.005788	           -0.718108	           -0.008912	           -0.346475	           -0.022296
            3.760500	            2.169443	          133.768958	           -2.091566	           -0.201960	            0.006415	           -0.448711	           -0.005697	           -0.351275	            0.005492	            8.311818	          334.559366	           21.509700	           -0.212705	            0.005790	           -0.718500	           -0.008651	           -0.348217	           -0.022388
            3.761000	            1.849246	          131.785384	           -1.961704	           -0.202299	            0.006406	           -0.446590	           -0.005265	           -0.375199	            0.005585	            8.557948	          331.246226	           21.310061	           -0.212453	            0.005791	           -0.718653	           -0.008886	           -0.343955	           -0.022128
            3.761500	            1.849544	          128.901526	           -2.065784	           -0.201903	            0.006404	           -0.446107	           -0.006248	           -0.435470	            0.006979	            8.761237	          326.827845	           21.153428	           -0.212526	            0.005791	           -0.718595	           -0.009927	           -0.370324	           -0.023969
            3.762000	            1.575600	          125.295373	           -1.897137	           -0.201852	            0.006407	           -0.446900	           -0.006747	           -0.536526	            0.008124	            8.495924	          322.408610	           20.762353	           -0.212798	            0.005790	           -0.718582	           -0.007502	           -0.284687	           -0.018333
